<?xml version="1.0" standalone="no"?>
<!DOCTYPE svg PUBLIC "-//W3C//DTD SVG 20010904//EN" "http://www.w3.org/TR/2001/REC-SVG-20010904/DTD/svg10.dtd">
<svg version="1.0" xmlns="http://www.w3.org/2000/svg" width="255.000000pt" height="428.000000pt" viewBox="0 0 255.000000 428.000000" preserveAspectRatio="xMidYMid meet">

<g transform="translate(0.000000,428.000000) scale(0.100000,-0.100000)"
fill="#000000" stroke="none">
<path d="M1206 3814 c-13 -13 -16 -45 -16 -189 0 -162 1 -175 19 -185 29 -15
77 -12 95 6 13 13 16 44 16 183 0 150 -2 170 -18 184 -23 21 -76 22 -96 1z"/>
<path d="M1024 3777 c-25 -22 -27 -28 -26 -103 1 -43 -2 -108 -7 -143 -7 -56
-5 -67 11 -83 21 -21 81 -24 95 -5 6 6 13 78 17 158 6 138 5 147 -14 172 -26
33 -41 34 -76 4z"/>
<path d="M1413 3778 c-16 -18 -18 -37 -15 -167 2 -134 4 -147 23 -163 12 -10
34 -18 50 -18 42 0 52 27 44 123 -3 45 -2 106 3 135 11 62 -2 86 -55 101 -26
8 -35 6 -50 -11z"/>
<path d="M845 3671 c-78 -49 -137 -138 -166 -250 -26 -101 -25 -162 2 -187 20
-18 44 -19 568 -19 589 0 584 0 598 53 9 38 -20 172 -54 240 -33 67 -141 182
-172 182 -29 0 -44 -62 -35 -154 l7 -74 42 -11 c33 -8 45 -17 55 -40 6 -16 10
-38 8 -48 -3 -17 -25 -18 -433 -18 l-430 0 -3 42 c-3 40 -1 44 32 59 41 20 46
34 46 136 0 114 -8 125 -65 89z"/>
<path d="M343 3170 c-40 -24 -63 -67 -63 -119 0 -33 7 -49 35 -80 l35 -38 -1
-129 c-2 -245 53 -411 200 -601 143 -184 379 -324 573 -340 l69 -6 -2 -814 -2
-813 23 -25 c30 -32 50 -32 81 1 l24 26 0 803 c0 442 3 807 7 811 5 4 34 11
66 15 174 24 340 109 476 244 136 136 214 260 262 420 23 76 27 114 32 250 l4
160 34 38 c28 30 34 45 34 82 0 57 -43 110 -102 126 -52 14 -78 7 -116 -32
-56 -57 -58 -136 -6 -192 l26 -29 -5 -151 c-5 -171 -24 -254 -83 -370 -90
-178 -263 -325 -454 -386 -189 -61 -437 -35 -616 64 -129 72 -254 216 -328
377 -48 105 -68 196 -76 338 l-6 125 32 31 c73 69 51 180 -43 220 -44 19 -72
17 -110 -6z"/>
<path d="M665 3105 c-31 -30 -31 -36 0 -73 l25 -29 210 -5 c115 -3 213 -7 216
-11 11 -11 -5 -55 -23 -62 -10 -3 -103 -8 -208 -11 -184 -4 -190 -5 -214 -28
-27 -28 -24 -69 9 -86 12 -6 217 -12 566 -15 588 -5 583 -6 599 44 8 26 -21
81 -43 82 -9 0 -85 0 -167 -1 -83 -1 -162 1 -176 5 -31 8 -56 52 -39 69 6 6
83 11 202 12 185 2 192 2 210 24 24 30 23 62 -4 87 -22 19 -38 20 -581 21
l-558 2 -24 -25z m660 -47 c39 -31 56 -77 45 -120 -19 -68 -74 -104 -133 -87
-40 11 -107 79 -107 109 0 29 47 99 73 110 40 16 93 11 122 -12z"/>
<path d="M694 2685 c-54 -42 -19 -199 71 -320 67 -89 134 -129 149 -89 12 32
6 174 -10 213 -23 58 -16 85 22 89 25 2 37 -3 54 -25 20 -26 21 -36 19 -186
-3 -171 0 -179 52 -192 18 -4 31 -1 43 10 14 14 16 43 16 194 0 200 4 214 57
189 l28 -13 -4 -196 -3 -196 23 -17 c29 -20 83 -21 99 -1 9 11 12 65 9 211 -4
176 -2 198 13 207 12 8 24 8 41 0 l25 -12 -6 -170 c-4 -148 -3 -173 12 -196
20 -31 45 -32 81 -3 l27 21 -3 181 -4 181 48 9 c62 11 107 -6 107 -41 0 -16
-10 -29 -29 -41 -40 -22 -51 -51 -51 -125 0 -73 8 -107 24 -107 25 0 86 52
132 112 81 106 125 248 91 293 -15 19 -26 20 -449 18 -238 -2 -487 1 -552 5
-76 4 -124 3 -132 -3z"/>
<path d="M2048 1923 c-18 -5 -23 -16 -33 -75 -6 -29 -3 -40 14 -57 27 -27 75
-27 102 0 50 50 -12 150 -83 132z"/>
<path d="M405 1894 c-30 -33 -32 -67 -5 -94 23 -23 72 -26 90 -5 6 8 14 33 17
56 5 34 2 45 -12 56 -29 20 -64 16 -90 -13z"/>
<path d="M581 1864 c-20 -25 -21 -40 -23 -308 -3 -363 -4 -347 18 -363 26 -19
68 -16 89 6 15 18 17 50 19 337 2 345 0 354 -54 354 -19 0 -35 -9 -49 -26z"/>
<path d="M1830 1855 c-12 -14 -14 -73 -13 -327 2 -278 4 -312 19 -329 25 -28
68 -24 93 7 20 26 21 38 21 319 0 264 -2 295 -17 314 -24 29 -84 39 -103 16z"/>
<path d="M1631 1694 c-21 -26 -21 -36 -21 -485 l1 -459 24 -16 c31 -20 70 -12
86 18 9 17 12 139 10 461 0 242 -4 450 -7 463 -12 48 -62 57 -93 18z"/>
<path d="M781 1677 c-5 -13 -10 -222 -12 -466 -3 -441 -3 -443 18 -467 27 -30
45 -30 79 0 l28 23 -3 444 c-3 495 -2 489 -66 489 -28 0 -37 -5 -44 -23z"/>
<path d="M1433 1593 c-21 -18 -22 -22 -25 -549 -3 -511 -2 -533 16 -553 25
-28 52 -27 79 3 l22 24 -2 503 c-2 277 -3 515 -3 529 0 34 -10 47 -41 55 -17
4 -32 0 -46 -12z"/>
<path d="M997 1582 c-15 -17 -17 -69 -17 -541 l0 -522 25 -24 c31 -32 48 -31
75 3 l22 27 -6 530 c-5 403 -9 531 -19 537 -22 14 -63 9 -80 -10z"/>
</g>
</svg>
